<svg width="21" height="21" viewBox="0 0 21 21" fill="none" xmlns="http://www.w3.org/2000/svg">
<path fill-rule="evenodd" clip-rule="evenodd" d="M15.6431 14.1474L19.8645 18.3747C20.053 18.5844 20.0437 18.9055 19.8434 19.1039L19.1047 19.8437C19.0056 19.9437 18.8707 20 18.73 20C18.5893 20 18.4544 19.9437 18.3553 19.8437L14.1339 15.6164C14.0172 15.4994 13.9112 15.372 13.8173 15.2359L13.0258 14.1791C11.7162 15.2263 10.0898 15.7965 8.41388 15.796C4.96034 15.808 1.95934 13.4224 1.18757 10.0515C0.415791 6.68058 2.07921 3.22404 5.19304 1.72824C8.30686 0.232444 12.0401 1.0966 14.1825 3.8091C16.3249 6.5216 16.3047 10.3585 14.1339 13.0483L15.1893 13.7775C15.3541 13.8831 15.5063 14.0072 15.6431 14.1474ZM3.13727 8.39798C3.13727 11.3163 5.49977 13.6821 8.41405 13.6821C9.81355 13.6821 11.1557 13.1254 12.1453 12.1344C13.1349 11.1435 13.6908 9.79942 13.6908 8.39798C13.6908 5.47963 11.3283 3.11384 8.41405 3.11384C5.49977 3.11384 3.13727 5.47963 3.13727 8.39798Z" fill="black"/>
<path d="M19.8645 18.3747L20.0507 18.2073L20.0414 18.1981L19.8645 18.3747ZM15.6431 14.1474L15.4641 14.322L15.4662 14.324L15.6431 14.1474ZM19.8434 19.1039L19.6675 18.9263L19.6665 18.9273L19.8434 19.1039ZM19.1047 19.8437L18.9277 19.667L18.927 19.6678L19.1047 19.8437ZM18.3553 19.8437L18.533 19.6678L18.5322 19.667L18.3553 19.8437ZM14.1339 15.6164L13.9569 15.793L13.957 15.793L14.1339 15.6164ZM13.8173 15.2359L14.0233 15.0939L14.0174 15.0861L13.8173 15.2359ZM13.0258 14.1791L13.2259 14.0292L13.0712 13.8227L12.8697 13.9838L13.0258 14.1791ZM8.41388 15.796L8.41395 15.546L8.41301 15.546L8.41388 15.796ZM1.18757 10.0515L0.943872 10.1073L1.18757 10.0515ZM5.19304 1.72824L5.08478 1.50289L5.19304 1.72824ZM14.1825 3.8091L13.9863 3.96405L13.9863 3.96405L14.1825 3.8091ZM14.1339 13.0483L13.9394 12.8913L13.7702 13.1009L13.9918 13.254L14.1339 13.0483ZM15.1893 13.7775L15.0471 13.9833L15.0544 13.988L15.1893 13.7775ZM12.1453 12.1344L12.3222 12.3111L12.3222 12.3111L12.1453 12.1344ZM20.0414 18.1981L15.82 13.9707L15.4662 14.324L19.6876 18.5514L20.0414 18.1981ZM20.0193 19.2815C20.3144 18.9892 20.3281 18.5165 20.0504 18.2076L19.6786 18.5418C19.778 18.6524 19.773 18.8217 19.6675 18.9263L20.0193 19.2815ZM19.2816 20.0204L20.0203 19.2806L19.6665 18.9273L18.9278 19.667L19.2816 20.0204ZM18.73 20.25C18.9375 20.25 19.1363 20.167 19.2823 20.0196L18.927 19.6678C18.8749 19.7204 18.8039 19.75 18.73 19.75V20.25ZM18.1777 20.0196C18.3237 20.167 18.5225 20.25 18.73 20.25V19.75C18.6561 19.75 18.5851 19.7204 18.533 19.6678L18.1777 20.0196ZM13.957 15.793L18.1784 20.0204L18.5322 19.667L14.3108 15.4397L13.957 15.793ZM13.6115 15.3779C13.7139 15.5264 13.8296 15.6653 13.9569 15.793L14.3109 15.4398C14.2048 15.3334 14.1084 15.2177 14.0231 15.094L13.6115 15.3779ZM12.8257 14.329L13.6172 15.3858L14.0174 15.0861L13.2259 14.0292L12.8257 14.329ZM8.41381 16.046C10.1466 16.0465 11.828 15.457 13.1819 14.3743L12.8697 13.9838C11.6043 14.9957 10.0331 15.5465 8.41395 15.546L8.41381 16.046ZM0.943872 10.1073C1.74169 13.5919 4.84408 16.0585 8.41475 16.046L8.41301 15.546C5.0766 15.5576 2.177 13.2529 1.43126 9.9957L0.943872 10.1073ZM5.08478 1.50289C1.86552 3.04934 0.146071 6.62271 0.943872 10.1073L1.43126 9.9957C0.68551 6.73846 2.2929 3.39874 5.30129 1.95359L5.08478 1.50289ZM14.3786 3.65414C12.1638 0.849918 8.30415 -0.0436035 5.08478 1.50289L5.30129 1.95359C8.30957 0.508492 11.9163 1.34327 13.9863 3.96405L14.3786 3.65414ZM14.3285 13.2053C16.5726 10.4247 16.5934 6.45826 14.3786 3.65414L13.9863 3.96405C16.0563 6.58494 16.0368 10.2924 13.9394 12.8913L14.3285 13.2053ZM15.3314 13.5718L14.276 12.8426L13.9918 13.254L15.0472 13.9832L15.3314 13.5718ZM15.822 13.9728C15.672 13.8191 15.505 13.6829 15.3242 13.567L15.0544 13.988C15.2032 14.0834 15.3407 14.1954 15.4641 14.322L15.822 13.9728ZM8.41405 13.4321C5.63816 13.4321 3.38727 11.1786 3.38727 8.39798H2.88727C2.88727 11.4541 5.36137 13.9321 8.41405 13.9321V13.4321ZM11.9684 11.9578C11.0257 12.9018 9.74713 13.4321 8.41405 13.4321V13.9321C9.87996 13.9321 11.2858 13.349 12.3222 12.3111L11.9684 11.9578ZM13.4408 8.39798C13.4408 9.73323 12.9111 11.0137 11.9684 11.9578L12.3222 12.3111C13.3586 11.2732 13.9408 9.86562 13.9408 8.39798H13.4408ZM8.41405 3.36384C11.1899 3.36384 13.4408 5.61738 13.4408 8.39798H13.9408C13.9408 5.34189 11.4667 2.86384 8.41405 2.86384V3.36384ZM3.38727 8.39798C3.38727 5.61738 5.63816 3.36384 8.41405 3.36384V2.86384C5.36137 2.86384 2.88727 5.34189 2.88727 8.39798H3.38727Z" fill="white"/>
</svg>
